HIERARCHY
ROOT Hips
{
	OFFSET 0.000000 0.000000 0.000000 
	CHANNELS 6 Xposition Yposition Zposition Zrotation Yrotation Xrotation
	JOINT LHipJoint
	{
		OFFSET 0.000000 0.000000 0.000000 
		CHANNELS 3 Zrotation Yrotation Xrotation
		JOINT LeftUpLeg
		{
			OFFSET 1.091560 -1.614060 0.765000 
			CHANNELS 3 Zrotation Yrotation Xrotation
			JOINT LeftLeg
			{
				OFFSET 2.337500 -6.422250 0.000000 
				CHANNELS 3 Zrotation Yrotation Xrotation
				JOINT LeftFoot
				{
					OFFSET 2.492470 -6.848000 0.000000 
					CHANNELS 3 Zrotation Yrotation Xrotation
					JOINT LeftToeBase
					{
						OFFSET 0.153120 -0.420690 1.454610 
						CHANNELS 3 Zrotation Yrotation Xrotation
						End Site
						{
							OFFSET 0.000000 -0.000000 0.770460 
						}
					}
				}
			}
		}
	}
	JOINT RHipJoint
	{
		OFFSET 0.000000 0.000000 0.000000 
		CHANNELS 3 Zrotation Yrotation Xrotation
		JOINT RightUpLeg
		{
			OFFSET -0.998830 -1.614060 0.765000 
			CHANNELS 3 Zrotation Yrotation Xrotation
			JOINT RightLeg
			{
				OFFSET -2.368770 -6.508150 0.000000 
				CHANNELS 3 Zrotation Yrotation Xrotation
				JOINT RightFoot
				{
					OFFSET -2.534520 -6.963530 0.000000 
					CHANNELS 3 Zrotation Yrotation Xrotation
					JOINT RightToeBase
					{
						OFFSET -0.131560 -0.361450 1.632370 
						CHANNELS 3 Zrotation Yrotation Xrotation
						End Site
						{
							OFFSET -0.000000 -0.000000 0.849790 
						}
					}
				}
			}
		}
	}
	JOINT LowerBack
	{
		OFFSET 0.000000 0.000000 0.000000 
		CHANNELS 3 Zrotation Yrotation Xrotation
		JOINT Spine
		{
			OFFSET -0.024310 1.982420 -0.136160 
			CHANNELS 3 Zrotation Yrotation Xrotation
			JOINT Spine1
			{
				OFFSET 0.036290 1.989740 -0.029540 
				CHANNELS 3 Zrotation Yrotation Xrotation
				JOINT Neck
				{
					OFFSET 0.000000 0.000000 0.000000 
					CHANNELS 3 Zrotation Yrotation Xrotation
					JOINT Neck1
					{
						OFFSET 0.093490 1.407830 0.223330 
						CHANNELS 3 Zrotation Yrotation Xrotation
						JOINT Head
						{
							OFFSET -0.042730 1.445000 -0.064950 
							CHANNELS 3 Zrotation Yrotation Xrotation
							End Site
							{
								OFFSET -0.022510 1.446000 -0.045440 
							}
						}
					}
				}
				JOINT LeftShoulder
				{
					OFFSET 0.000000 0.000000 0.000000 
					CHANNELS 3 Zrotation Yrotation Xrotation
					JOINT LeftArm
					{
						OFFSET 3.491370 0.851260 -0.297400 
						CHANNELS 3 Zrotation Yrotation Xrotation
						JOINT LeftForeArm
						{
							OFFSET 5.060350 -0.000000 0.000000 
							CHANNELS 3 Zrotation Yrotation Xrotation
							JOINT LeftHand
							{
								OFFSET 3.147800 -0.000000 0.000000 
								CHANNELS 3 Zrotation Yrotation Xrotation
								JOINT LeftFingerBase
								{
									OFFSET 0.000000 0.000000 0.000000 
									CHANNELS 3 Zrotation Yrotation Xrotation
									JOINT LeftHandIndex1
									{
										OFFSET 0.606750 -0.000000 0.000000 
										CHANNELS 3 Zrotation Yrotation Xrotation
										End Site
										{
											OFFSET 0.489180 -0.000000 0.000000 
										}
									}
								}
								JOINT LThumb
								{
									OFFSET 0.000000 0.000000 0.000000 
									CHANNELS 3 Zrotation Yrotation Xrotation
									End Site
									{
										OFFSET 0.496640 -0.000000 0.496640 
									}
								}
							}
						}
					}
				}
				JOINT RightShoulder
				{
					OFFSET 0.000000 0.000000 0.000000 
					CHANNELS 3 Zrotation Yrotation Xrotation
					JOINT RightArm
					{
						OFFSET -3.281010 0.697070 0.007470 
						CHANNELS 3 Zrotation Yrotation Xrotation
						JOINT RightForeArm
						{
							OFFSET -5.122730 -0.000000 -0.000000 
							CHANNELS 3 Zrotation Yrotation Xrotation
							JOINT RightHand
							{
								OFFSET -3.422000 -0.000000 0.000000 
								CHANNELS 3 Zrotation Yrotation Xrotation
								JOINT RightFingerBase
								{
									OFFSET 0.000000 0.000000 0.000000 
									CHANNELS 3 Zrotation Yrotation Xrotation
									JOINT RightHandIndex1
									{
										OFFSET -0.704600 -0.000000 0.000000 
										CHANNELS 3 Zrotation Yrotation Xrotation
										End Site
										{
											OFFSET -0.568070 -0.000000 0.000000 
										}
									}
								}
								JOINT RThumb
								{
									OFFSET 0.000000 0.000000 0.000000 
									CHANNELS 3 Zrotation Yrotation Xrotation
									End Site
									{
										OFFSET -0.576740 -0.000000 0.576740 
									}
								}
							}
						}
					}
				}
			}
		}
	}
}
MOTION
Frames: 5
Frame Time: 0.008333
0.000000 15.999995 0.000000 532.640015 99.592400 540.403015 0.000000 0.000000 0.000000 -25.617300 1.951700 -4.631300 1.674000 8.151300 23.174601 1.262300 10.783600 -27.611601 0.004300 -0.424800 -1.167100 0.000000 0.000000 0.000000 8.760800 16.272200 -31.297501 -8.688100 -16.602800 55.005100 -0.309100 8.406300 -10.752000 -0.005600 0.482900 -1.327000 -4.236700 -4.661900 -3.279800 2.078800 -6.099200 0.017900 4.146900 -3.111900 2.521600 -0.520300 -2.100800 -1.087300 -0.739100 -2.799500 -1.789400 -0.137900 -1.390700 -0.366200 -0.000000 0.000000 0.000000 -90.928703 -10.471200 24.209299 7.901800 -13.393500 -0.929200 -0.000000 -0.000000 7.432300 13.944700 44.911701 9.943300 -7.125000 0.000000 -0.000000 -40.202900 72.259003 -27.260000 -0.000000 0.000000 0.000000 89.619499 -7.413000 -13.763100 -0.989400 1.713000 -0.014800 0.000000 0.000000 27.760300 -32.023998 31.007700 -17.859100 7.125000 -0.000000 -0.000000 -0.320700 5.353400 -0.349200 
0.000000 15.999995 0.000000 532.179016 99.631897 540.067993 0.000000 0.000000 0.000000 -25.484301 1.998400 -4.476600 1.645000 8.083800 22.968901 1.259600 10.587000 -27.433599 0.014700 -0.782400 -2.150200 0.000000 0.000000 0.000000 8.984100 16.352699 -31.726999 -8.576200 -16.527100 54.612598 -0.323900 8.280500 -10.903900 -0.012900 0.733600 -2.016100 -4.179000 -4.736500 -3.410900 2.142000 -6.197600 0.140600 4.155000 -3.167600 2.733500 -0.692100 -2.047100 -1.190700 -0.569400 -2.723900 -2.037300 -0.058800 -1.350900 -0.419400 0.000000 0.000000 0.000000 -90.879501 -10.685500 24.833000 8.021200 -13.587300 -0.957100 -0.000000 -0.000000 6.758100 14.461000 45.187302 10.367700 -7.125000 0.000000 -0.000000 -40.326500 72.634804 -27.660299 0.000000 0.000000 0.000000 89.749802 -7.660100 -13.751700 -1.283600 2.221900 -0.024900 0.000000 0.000000 27.750200 -31.423000 30.708000 -17.327499 7.125000 -0.000000 -0.000000 -0.045500 4.859100 -0.049200 
0.000000 15.999995 0.000000 530.755005 99.571404 538.744019 0.000000 0.000000 0.000000 -25.106501 2.065500 -4.378300 1.622900 8.031900 22.810900 1.302800 10.028100 -27.304501 0.023800 -0.995900 -2.737600 0.000000 0.000000 0.000000 9.437800 16.396900 -32.071899 -8.434800 -16.429899 54.113998 -0.321400 8.035100 -10.796600 -0.006100 0.503900 -1.384500 -4.145000 -4.932000 -3.331200 2.375300 -6.468400 0.141300 4.362100 -3.305100 2.742400 -0.944600 -1.886400 -1.028600 -0.415900 -2.508400 -2.200100 0.030700 -1.240800 -0.490200 0.000000 -0.000000 0.000000 -91.083099 -10.631600 24.554701 8.142100 -13.782900 -0.985700 -0.000000 -0.000000 6.673800 14.910800 45.080002 10.677900 -7.125000 0.000000 -0.000000 -39.605400 72.721100 -27.193300 0.000000 -0.000000 0.000000 89.709099 -8.566400 -13.486800 -1.986800 3.436400 -0.059600 0.000000 0.000000 27.876400 -30.456400 30.332100 -16.539200 7.125000 -0.000000 -0.000000 0.425100 4.186800 0.455000 
0.000000 15.999995 0.000000 530.541016 100.462997 538.354980 0.000000 0.000000 0.000000 -25.129200 2.195900 -3.813100 1.598600 7.974400 22.636499 1.275500 10.504700 -27.482100 0.025900 -1.038300 -2.854300 0.000000 0.000000 0.000000 9.795500 17.025000 -32.081100 -8.279900 -16.321301 53.564800 -0.313600 7.999200 -10.682400 -0.001100 -0.211800 0.581900 -3.888900 -4.661200 -3.576400 2.356300 -6.108800 0.489800 4.191600 -3.136300 3.172100 -0.853800 -1.888200 -1.678800 -0.502300 -2.501900 -1.784500 -0.019700 -1.240900 -0.261300 0.000000 0.000000 0.000000 -91.142998 -10.980500 24.388901 8.192800 -13.865000 -0.997800 -0.000000 -0.000000 6.931200 14.369500 45.050999 10.276900 -7.125000 0.000000 -0.000000 -40.094898 72.507301 -27.383499 0.000000 0.000000 0.000000 89.815201 -8.578500 -13.638500 -2.166100 3.745600 -0.070800 0.000000 0.000000 28.092300 -30.236401 30.061800 -16.276600 7.125000 -0.000000 -0.000000 0.497500 3.838400 0.529700 
0.000000 15.999995 0.000000 531.156006 100.218002 539.130981 0.000000 0.000000 0.000000 -25.119101 2.203600 -3.793000 1.568600 7.902800 22.419300 1.318500 9.881900 -27.304899 0.027700 -1.074300 -2.953300 0.000000 0.000000 0.000000 9.826500 16.943001 -32.571800 -8.118500 -16.205799 52.988499 -0.331000 7.606500 -10.800000 -0.002400 -0.316000 0.868300 -4.338100 -4.814400 -3.192600 2.548400 -6.313200 0.293700 4.664800 -3.238400 2.847000 -1.120100 -1.824400 -1.807500 -0.382900 -2.408800 -1.519800 0.055800 -1.195000 -0.156800 -0.000000 0.000000 0.000000 -91.363899 -10.860600 24.316401 8.285800 -14.015100 -1.020200 -0.000000 -0.000000 6.988500 13.621300 44.959000 9.716100 -7.125000 0.000000 -0.000000 -40.643902 72.177696 -27.518700 -0.000000 0.000000 0.000000 89.547501 -8.612400 -13.646200 -1.993400 3.447700 -0.060000 0.000000 0.000000 28.280500 -30.391300 29.902901 -16.298201 7.125000 -0.000000 -0.000000 0.378800 3.711200 0.402500 
